<svg xmlns="http://www.w3.org/2000/svg" viewBox="0 0 72.836 72.831">
  <defs>
    <style>
      .cls-1 {
        fill: #e9e9e9;
      }
    </style>
  </defs>
  <path id="Subtraction_75" data-name="Subtraction 75" class="cls-1" d="M-7938-2664.461h0l-4.984-4.984.035-.035-59.4-59.4-.037.037-4.915-4.915,3.539-3.535,8.526,8.529h36.383a3.079,3.079,0,0,1,3.1,3.051v27.467a3.079,3.079,0,0,1-3.1,3.051h-2.815l6.1,6.1h6.017v-27.465h6.2a3.083,3.083,0,0,1,3.1,3.052v39.733l5.775,5.776-3.537,3.534Zm-22.475-15.476h-26.285a3.081,3.081,0,0,1-3.1-3.051v-6.1h20.232l9.154,9.154Zm-41.791-3.051v-38.74l26.532,26.532h-14.129l-12.4,12.206Z" transform="translate(8007.295 2737.292)"/>
</svg>
