<svg xmlns="http://www.w3.org/2000/svg" viewBox="0 0 362 93">
  <defs>
    <style>
      .cls-1 {
        fill: #e3e7f2;
      }
    </style>
  </defs>
  <g id="Group_1658" data-name="Group 1658" transform="translate(-50.614 -323.839)">
    <path id="ic_translate_24px" class="cls-1" d="M19.992,22.912,15.928,18.9l.048-.048A28.031,28.031,0,0,0,21.912,8.4H26.6V5.2H15.4V2H12.2V5.2H1V8.384H18.872A25.14,25.14,0,0,1,13.8,16.96a25.032,25.032,0,0,1-3.7-5.36H6.9a28.1,28.1,0,0,0,4.768,7.3L3.528,26.928,5.8,29.2l8-8,4.976,4.976,1.216-3.264ZM29,14.8H25.8L18.6,34h3.2l1.792-4.8h7.6L33,34h3.2ZM24.808,26,27.4,19.072,29.992,26H24.808Z" transform="translate(148.615 321.839)"/>
    <path id="ic_mic_none_24px" class="cls-1" d="M17.158,22.842a5.189,5.189,0,0,0,5.193-5.211l.017-10.421a5.211,5.211,0,1,0-10.421,0V17.632A5.2,5.2,0,0,0,17.158,22.842ZM15.074,7.037a2.084,2.084,0,1,1,4.168,0l-.017,10.768a2.076,2.076,0,1,1-4.151,0V7.037ZM26.363,17.632a9.012,9.012,0,0,1-9.205,8.858,9.012,9.012,0,0,1-9.205-8.858H5A12.13,12.13,0,0,0,15.421,29.3V35h3.474V29.3A12.1,12.1,0,0,0,29.316,17.632Z" transform="translate(286.615 381.84)"/>
    <path id="ic_play_arrow_24px" class="cls-1" d="M8,5V29L26.857,17Z" transform="translate(340.615 322.839)"/>
    <path id="ic_volume_up_24px" class="cls-1" d="M3,13.469V24.117h7.1l8.873,8.873V4.6L10.1,13.469Zm23.957,5.324a7.986,7.986,0,0,0-4.437-7.152V25.927A7.94,7.94,0,0,0,26.957,18.793ZM22.521,3.23V6.886a12.427,12.427,0,0,1,0,23.815v3.656a15.96,15.96,0,0,0,0-31.127Z" transform="translate(97.615 380.609)"/>
    <path id="ic_star_border_24px" class="cls-1" d="M34.982,13.94,23.125,12.917,18.491,2,13.857,12.934,2,13.94l9,7.8L8.3,33.333l10.192-6.151,10.192,6.151L25.995,21.74ZM18.491,24.1l-6.2,3.744,1.649-7.058L8.465,16.034l7.223-.627,2.8-6.646,2.82,6.662,7.223.627L23.059,20.8l1.649,7.058Z" transform="translate(48.615 321.84)"/>
    <path id="ic_book_24px" class="cls-1" d="M26.4,2H7.2A3.209,3.209,0,0,0,4,5.2V30.8A3.209,3.209,0,0,0,7.2,34H26.4a3.209,3.209,0,0,0,3.2-3.2V5.2A3.209,3.209,0,0,0,26.4,2ZM7.2,5.2h8V18l-4-2.4L7.2,18Z" transform="translate(195.615 381.84)"/>
    <path id="ic_folder_open_24px" class="cls-1" d="M29,7H17L14,4H5A3,3,0,0,0,2.015,7L2,25a3.009,3.009,0,0,0,3,3H29a3.009,3.009,0,0,0,3-3V10A3.009,3.009,0,0,0,29,7Zm0,18H5V10H29Z" transform="translate(380.615 383.839)"/>
    <path id="ic_public_24px" class="cls-1" d="M18,2A16,16,0,1,0,34,18,16.006,16.006,0,0,0,18,2ZM16.4,30.688A12.781,12.781,0,0,1,5.2,18a12.989,12.989,0,0,1,.336-2.864L13.2,22.8v1.6a3.209,3.209,0,0,0,3.2,3.2Zm11.04-4.064A3.174,3.174,0,0,0,24.4,24.4H22.8V19.6A1.6,1.6,0,0,0,21.2,18H11.6V14.8h3.2a1.6,1.6,0,0,0,1.6-1.6V10h3.2a3.209,3.209,0,0,0,3.2-3.2V6.144a12.771,12.771,0,0,1,4.64,20.48Z" transform="translate(248.615 321.84)"/>
  </g>
</svg>
